<?xml version="1.0" encoding="UTF-8"?>
<!DOCTYPE svg PUBLIC "-//W3C//DTD SVG 1.1//EN" "http://www.w3.org/Graphics/SVG/1.1/DTD/svg11.dtd">
<svg xmlns="http://www.w3.org/2000/svg" version="1.1" width="758px" height="329px" style="shape-rendering:geometricPrecision; text-rendering:geometricPrecision; image-rendering:optimizeQuality; fill-rule:evenodd; clip-rule:evenodd" xmlns:xlink="http://www.w3.org/1999/xlink">
<g><path style="opacity:0.337" fill="#fdf5be" d="M 313.5,117.5 C 312.833,117.5 312.167,117.5 311.5,117.5C 304.267,115.969 296.933,115.302 289.5,115.5C 288.167,115.5 286.833,115.5 285.5,115.5C 292.638,113.024 299.971,112.858 307.5,115C 309.852,115.24 311.852,116.073 313.5,117.5 Z"/></g>
<g><path style="opacity:0.075" fill="#fefee6" d="M 62.5,116.5 C 70.3225,115.344 78.3225,115.177 86.5,116C 87.2524,116.671 87.5858,117.504 87.5,118.5C 86.8333,118.167 86.1667,117.833 85.5,117.5C 78.0182,116.508 70.3516,116.175 62.5,116.5 Z"/></g>
<g><path style="opacity:0.063" fill="#fffed9" d="M 156.5,208.5 C 156.831,177.995 156.498,147.662 155.5,117.5C 148.345,116.345 141.012,116.178 133.5,117C 132.944,117.383 132.611,117.883 132.5,118.5C 132.167,118.5 131.833,118.5 131.5,118.5C 131.414,117.504 131.748,116.671 132.5,116C 140.746,115.185 148.912,115.352 157,116.5C 157.831,147.336 157.664,178.003 156.5,208.5 Z"/></g>
<g><path style="opacity:0.02" fill="#fffeea" d="M 181.5,116.5 C 200.996,115.338 220.662,115.171 240.5,116C 241.252,116.671 241.586,117.504 241.5,118.5C 241.167,118.5 240.833,118.5 240.5,118.5C 240.5,117.833 240.167,117.5 239.5,117.5C 220.341,116.503 201.007,116.17 181.5,116.5 Z"/></g>
<g><path style="opacity:0.074" fill="#fffedc" d="M 406.5,116.5 C 412.568,115.174 418.734,115.174 425,116.5C 425.831,147.336 425.664,178.003 424.5,208.5C 424.831,177.995 424.498,147.662 423.5,117.5C 418.025,116.511 412.358,116.178 406.5,116.5 Z"/></g>
<g><path style="opacity:0.071" fill="#fefee5" d="M 468.5,116.5 C 461.646,116.176 454.979,116.509 448.5,117.5C 447.833,117.5 447.5,117.833 447.5,118.5C 447.167,118.5 446.833,118.5 446.5,118.5C 446.414,117.504 446.748,116.671 447.5,116C 454.679,115.179 461.679,115.345 468.5,116.5 Z"/></g>
<g><path style="opacity:0.099" fill="#fefde1" d="M 681.5,116.5 C 684.482,115.835 687.648,115.502 691,115.5C 694.576,115.515 697.742,116.182 700.5,117.5C 700.167,117.5 699.833,117.5 699.5,117.5C 693.925,116.548 688.259,116.214 682.5,116.5C 682.167,116.5 681.833,116.5 681.5,116.5 Z"/></g>
<g><path style="opacity:0.482" fill="#fae797" d="M 155.5,117.5 C 148.492,117.334 141.492,117.5 134.5,118C 133.956,118.717 133.289,119.217 132.5,119.5C 132.5,119.167 132.5,118.833 132.5,118.5C 132.611,117.883 132.944,117.383 133.5,117C 141.012,116.178 148.345,116.345 155.5,117.5 Z"/></g>
<g><path style="opacity:0.812" fill="#f1d56f" d="M 285.5,115.5 C 286.833,115.5 288.167,115.5 289.5,115.5C 287.485,116.924 285.152,117.59 282.5,117.5C 283.5,116.833 284.5,116.167 285.5,115.5 Z"/></g>
<g><path style="opacity:0.507" fill="#fbe99c" d="M 448.5,117.5 C 454.979,116.509 461.646,116.176 468.5,116.5C 470.446,117.035 471.446,118.368 471.5,120.5C 471.5,121.167 471.5,121.833 471.5,122.5C 471.167,122.5 470.833,122.5 470.5,122.5C 470.573,120.973 469.906,119.973 468.5,119.5C 462.25,117.541 455.584,116.874 448.5,117.5 Z"/></g>
<g><path style="opacity:0.78" fill="#edd165" d="M 180.5,118.5 C 199.993,117.503 219.66,117.17 239.5,117.5C 240.167,117.5 240.5,117.833 240.5,118.5C 240.5,118.833 240.5,119.167 240.5,119.5C 240.167,119.5 239.833,119.5 239.5,119.5C 220.007,118.503 200.34,118.17 180.5,118.5 Z"/></g>
<g><path style="opacity:1" fill="#f7c32c" d="M 289.5,115.5 C 296.933,115.302 304.267,115.969 311.5,117.5C 312.287,119.104 313.62,119.771 315.5,119.5C 321.057,121.064 325.057,124.397 327.5,129.5C 325.99,128.272 324.49,128.272 323,129.5C 322.749,127.567 322.249,125.734 321.5,124C 317.5,122.334 313.5,120.667 309.5,119C 300.119,118.22 290.786,118.387 281.5,119.5C 281.833,118.833 282.167,118.167 282.5,117.5C 285.152,117.59 287.485,116.924 289.5,115.5 Z"/></g>
<g><path style="opacity:0.779" fill="#edd26a" d="M 607.5,117.5 C 608.833,122.5 608.833,127.5 607.5,132.5C 607.818,127.968 607.485,123.634 606.5,119.5C 587.167,118.167 567.833,118.167 548.5,119.5C 548.167,119.5 547.833,119.5 547.5,119.5C 567.139,117.512 587.139,116.845 607.5,117.5 Z"/></g>
<g><path style="opacity:1" fill="#efc749" d="M 282.5,117.5 C 282.167,118.167 281.833,118.833 281.5,119.5C 277.659,120.446 273.992,121.78 270.5,123.5C 273.735,120.186 277.735,118.186 282.5,117.5 Z"/></g>
<g><path style="opacity:1" fill="#fdc213" d="M 327.5,129.5 C 327.833,132.167 328.167,134.833 328.5,137.5C 325.833,139.167 323.167,140.833 320.5,142.5C 318.041,142.69 316.374,141.69 315.5,139.5C 313.833,138.5 312.5,137.167 311.5,135.5C 311.027,134.094 310.027,133.427 308.5,133.5C 301.72,130.55 294.72,129.884 287.5,131.5C 284.392,131.375 282.392,132.708 281.5,135.5C 279.833,136.5 278.5,137.833 277.5,139.5C 273.9,142.155 272.233,145.822 272.5,150.5C 272.5,157.833 272.5,165.167 272.5,172.5C 272.336,175.187 272.503,177.854 273,180.5C 273.708,181.381 274.542,182.047 275.5,182.5C 275.488,186.506 277.488,188.84 281.5,189.5C 281.414,190.496 281.748,191.329 282.5,192C 290.293,194.482 298.293,195.149 306.5,194C 308.063,193.241 309.063,192.074 309.5,190.5C 312.167,189.833 313.833,188.167 314.5,185.5C 314.66,183.847 315.326,182.514 316.5,181.5C 316.933,178.741 318.6,177.408 321.5,177.5C 323.969,178.569 326.302,179.902 328.5,181.5C 328.904,182.756 329.571,183.923 330.5,185C 329.751,187.497 329.084,189.997 328.5,192.5C 328.167,193.167 327.833,193.833 327.5,194.5C 325.952,194.821 325.285,195.821 325.5,197.5C 321.819,200.998 317.819,203.998 313.5,206.5C 312.833,206.5 312.167,206.5 311.5,206.5C 303.528,207.532 295.528,207.698 287.5,207C 281.462,204.917 275.462,202.751 269.5,200.5C 268.833,200.5 268.167,200.5 267.5,200.5C 264.081,196.669 261.414,192.335 259.5,187.5C 258.333,182.844 257.167,178.177 256,173.5C 254.951,161.682 255.785,150.016 258.5,138.5C 258.5,138.167 258.5,137.833 258.5,137.5C 259.906,137.027 260.573,136.027 260.5,134.5C 260.427,132.973 261.094,131.973 262.5,131.5C 265.5,129.167 268.167,126.5 270.5,123.5C 273.992,121.78 277.659,120.446 281.5,119.5C 290.786,118.387 300.119,118.22 309.5,119C 313.5,120.667 317.5,122.334 321.5,124C 322.249,125.734 322.749,127.567 323,129.5C 324.49,128.272 325.99,128.272 327.5,129.5 Z"/></g>
<g><path style="opacity:0.769" fill="#efd064" d="M 311.5,117.5 C 312.167,117.5 312.833,117.5 313.5,117.5C 314.167,118.167 314.833,118.833 315.5,119.5C 313.62,119.771 312.287,119.104 311.5,117.5 Z"/></g>
<g><path style="opacity:0.066" fill="#fffad2" d="M 644.5,117.5 C 644.167,117.5 643.833,117.5 643.5,117.5C 643.167,117.5 642.833,117.5 642.5,117.5C 637.025,116.511 631.358,116.178 625.5,116.5C 625.169,139.339 625.503,162.006 626.5,184.5C 626.5,185.167 626.5,185.833 626.5,186.5C 626.5,187.5 626.5,188.5 626.5,189.5C 624.982,186.466 624.149,183.133 624,179.5C 623.333,158.5 623.333,137.5 624,116.5C 630.418,115.357 636.918,115.19 643.5,116C 644.056,116.383 644.389,116.883 644.5,117.5 Z"/></g>
<g><path style="opacity:0.146" fill="#fefac7" d="M 643.5,117.5 C 643.833,117.5 644.167,117.5 644.5,117.5C 644.333,137.836 644.5,158.169 645,178.5C 645.561,181.279 646.394,183.946 647.5,186.5C 646.833,186.167 646.167,185.833 645.5,185.5C 645.291,184.078 644.791,182.745 644,181.5C 643.5,160.169 643.333,138.836 643.5,117.5 Z"/></g>
<g><path style="opacity:0.185" fill="#fefbc7" d="M 681.5,116.5 C 681.833,116.5 682.167,116.5 682.5,116.5C 681.979,138.824 681.145,161.157 680,183.5C 676.004,191.001 669.67,194.334 661,193.5C 658.116,193.394 655.282,193.061 652.5,192.5C 650.117,191.115 648.45,189.115 647.5,186.5C 658.314,194.915 668.481,194.248 678,184.5C 678.988,181.576 679.654,178.576 680,175.5C 680.168,155.662 680.668,135.996 681.5,116.5 Z"/></g>
<g><path style="opacity:1" fill="#fec20e" d="M 641.5,118.5 C 641.333,138.836 641.5,159.169 642,179.5C 642.353,182.152 643.52,184.152 645.5,185.5C 645.737,189.807 648.07,192.141 652.5,192.5C 660.264,195.084 668.264,194.917 676.5,192C 679.129,189.21 681.129,186.043 682.5,182.5C 683.5,161.177 683.833,139.844 683.5,118.5C 688.167,118.5 692.833,118.5 697.5,118.5C 697.667,140.503 697.5,162.503 697,184.5C 695.541,187.77 694.374,191.103 693.5,194.5C 692.189,197.135 690.522,199.469 688.5,201.5C 685.393,201.174 683.06,202.341 681.5,205C 671.322,207.388 660.988,208.054 650.5,207C 643.105,203.726 636.438,199.56 630.5,194.5C 630.167,193.833 629.833,193.167 629.5,192.5C 629.007,190.194 628.674,187.861 628.5,185.5C 627.521,163.212 627.188,140.879 627.5,118.5C 632.167,118.5 636.833,118.5 641.5,118.5 Z"/></g>
<g><path style="opacity:0.258" fill="#fdf8bf" d="M 699.5,117.5 C 699.833,117.5 700.167,117.5 700.5,117.5C 700.953,125.084 701.287,132.917 701.5,141C 701,155.5 700.5,170 700,184.5C 699.356,188.619 697.856,192.285 695.5,195.5C 694.094,195.973 693.427,196.973 693.5,198.5C 690.959,202.707 687.292,205.373 682.5,206.5C 684.5,204.833 686.5,203.167 688.5,201.5C 690.522,199.469 692.189,197.135 693.5,194.5C 697.135,190.702 698.968,186.036 699,180.5C 699.5,159.503 699.667,138.503 699.5,117.5 Z"/></g>
<g><path style="opacity:0.399" fill="#fdf3b9" d="M 62.5,116.5 C 70.3516,116.175 78.0182,116.508 85.5,117.5C 77.8333,117.5 70.1667,117.5 62.5,117.5C 62.1686,147.671 62.5019,177.671 63.5,207.5C 68.6405,208.488 73.9738,208.821 79.5,208.5C 76.6862,209.165 73.6862,209.498 70.5,209.5C 67.0606,209.446 63.8939,208.78 61,207.5C 60.3333,178.5 60.3333,149.5 61,120.5C 61.21,118.942 61.71,117.609 62.5,116.5 Z"/></g>
<g><path style="opacity:1" fill="#fec20f" d="M 84.5,119.5 C 84.8333,119.5 85.1667,119.5 85.5,119.5C 86.1667,119.5 86.5,119.833 86.5,120.5C 90.0092,134.036 94.6759,147.036 100.5,159.5C 100.833,159.5 101.167,159.5 101.5,159.5C 101.5,160.833 101.5,162.167 101.5,163.5C 101.47,168.101 102.803,172.101 105.5,175.5C 106.677,177.679 107.677,180.013 108.5,182.5C 109.279,184.927 110.446,184.927 112,182.5C 114.149,176.555 115.983,170.555 117.5,164.5C 119.074,162.898 119.741,160.898 119.5,158.5C 121.074,156.898 121.741,154.898 121.5,152.5C 124.697,146.601 127.03,140.267 128.5,133.5C 130.623,128.887 132.623,124.22 134.5,119.5C 140.833,119.5 147.167,119.5 153.5,119.5C 153.5,148.167 153.5,176.833 153.5,205.5C 149.76,205.241 146.094,205.574 142.5,206.5C 141.667,186.508 141.167,166.508 141,146.5C 135.476,145.195 133.309,147.528 134.5,153.5C 134.167,155.5 133.833,157.5 133.5,159.5C 132.094,159.973 131.427,160.973 131.5,162.5C 130.883,162.611 130.383,162.944 130,163.5C 128.672,168.478 127.505,173.478 126.5,178.5C 125.5,178.5 124.5,178.5 123.5,178.5C 122.653,182.799 121.987,187.133 121.5,191.5C 120.935,195.537 119.601,199.203 117.5,202.5C 115.896,203.287 115.229,204.62 115.5,206.5C 111.445,206.824 107.445,206.491 103.5,205.5C 102.222,201.957 100.222,198.957 97.5,196.5C 97.5336,191.605 96.2003,187.272 93.5,183.5C 93.187,178.557 91.5203,174.224 88.5,170.5C 88.1667,169.167 87.8333,167.833 87.5,166.5C 87.1662,160.12 85.1662,154.454 81.5,149.5C 80.791,148.596 79.791,148.263 78.5,148.5C 77.503,167.659 77.1697,186.993 77.5,206.5C 73.1667,206.5 68.8333,206.5 64.5,206.5C 64.5,177.5 64.5,148.5 64.5,119.5C 71.1667,119.5 77.8333,119.5 84.5,119.5 Z"/></g>
<g><path style="opacity:0.986" fill="#f1c334" d="M 155.5,117.5 C 155.831,147.671 155.498,177.671 154.5,207.5C 154.831,177.995 154.498,148.662 153.5,119.5C 147.167,119.5 140.833,119.5 134.5,119.5C 132.623,124.22 130.623,128.887 128.5,133.5C 129.522,128.746 130.855,124.079 132.5,119.5C 133.289,119.217 133.956,118.717 134.5,118C 141.492,117.5 148.492,117.334 155.5,117.5 Z"/></g>
<g><path style="opacity:0.141" fill="#fef6be" d="M 406.5,116.5 C 412.358,116.178 418.025,116.511 423.5,117.5C 417.833,117.5 412.167,117.5 406.5,117.5C 406.81,128.581 406.477,139.581 405.5,150.5C 392.656,150.829 379.989,150.495 367.5,149.5C 379.833,149.5 392.167,149.5 404.5,149.5C 403.856,138.116 404.523,127.116 406.5,116.5 Z"/></g>
<g><path style="opacity:1" fill="#fdc211" d="M 422.5,207.5 C 417.5,207.5 412.5,207.5 407.5,207.5C 408.148,193.791 407.481,180.458 405.5,167.5C 392.344,166.504 379.01,166.171 365.5,166.5C 363.519,179.458 362.852,192.791 363.5,206.5C 358.833,206.5 354.167,206.5 349.5,206.5C 349.5,177.5 349.5,148.5 349.5,119.5C 354.167,119.5 358.833,119.5 363.5,119.5C 363.333,130.172 363.5,140.839 364,151.5C 364.383,152.056 364.883,152.389 365.5,152.5C 379.183,152.833 392.85,152.499 406.5,151.5C 407.478,140.552 407.811,129.552 407.5,118.5C 412.5,118.5 417.5,118.5 422.5,118.5C 422.5,148.167 422.5,177.833 422.5,207.5 Z"/></g>
<g><path style="opacity:0.16" fill="#fefdd0" d="M 446.5,118.5 C 446.833,118.5 447.167,118.5 447.5,118.5C 447.169,148.338 447.502,178.005 448.5,207.5C 453.975,208.489 459.642,208.822 465.5,208.5C 459.432,209.826 453.266,209.826 447,208.5C 446.5,178.502 446.333,148.502 446.5,118.5 Z"/></g>
<g><path style="opacity:0.953" fill="#f1ca50" d="M 448.5,117.5 C 455.584,116.874 462.25,117.541 468.5,119.5C 462.256,118.542 455.923,118.209 449.5,118.5C 449.5,148.167 449.5,177.833 449.5,207.5C 449.167,207.5 448.833,207.5 448.5,207.5C 447.502,178.005 447.169,148.338 447.5,118.5C 447.5,117.833 447.833,117.5 448.5,117.5 Z"/></g>
<g><path style="opacity:0.271" fill="#fef7ba" d="M 506.5,116.5 C 512.358,116.178 518.025,116.511 523.5,117.5C 517.833,117.5 512.167,117.5 506.5,117.5C 506.5,136.5 506.5,155.5 506.5,174.5C 505.652,175.625 504.652,175.625 503.5,174.5C 502.692,171.55 501.358,168.883 499.5,166.5C 499.5,165.833 499.5,165.167 499.5,164.5C 501.39,166.59 503.057,168.923 504.5,171.5C 505.167,153.004 505.833,134.671 506.5,116.5 Z"/></g>
<g><path style="opacity:1" fill="#fec20f" d="M 470.5,122.5 C 470.833,122.5 471.167,122.5 471.5,122.5C 472.89,123.899 473.89,125.566 474.5,127.5C 474.427,129.027 475.094,130.027 476.5,130.5C 476.427,132.027 477.094,133.027 478.5,133.5C 478.427,135.027 479.094,136.027 480.5,136.5C 480.536,140.2 482.203,142.867 485.5,144.5C 486.674,145.514 487.34,146.847 487.5,148.5C 486.862,151.856 488.196,153.856 491.5,154.5C 491.744,158.652 493.744,161.652 497.5,163.5C 497.427,165.027 498.094,166.027 499.5,166.5C 501.358,168.883 502.692,171.55 503.5,174.5C 504.455,176.71 505.955,177.043 508,175.5C 508.5,156.836 508.667,138.17 508.5,119.5C 512.833,119.5 517.167,119.5 521.5,119.5C 521.5,148.5 521.5,177.5 521.5,206.5C 516.12,206.676 510.787,206.342 505.5,205.5C 505.158,204.662 504.492,204.328 503.5,204.5C 503.5,204.167 503.5,203.833 503.5,203.5C 503.056,198.796 500.723,195.463 496.5,193.5C 491.43,185.756 486.763,177.756 482.5,169.5C 482.13,166.733 480.796,164.733 478.5,163.5C 477.662,163.158 477.328,162.492 477.5,161.5C 477.044,158.237 475.377,155.904 472.5,154.5C 471.5,152.5 470.5,150.5 469.5,148.5C 469.299,144.65 467.466,143.65 464,145.5C 463.5,165.831 463.333,186.164 463.5,206.5C 459.167,206.5 454.833,206.5 450.5,206.5C 450.5,177.5 450.5,148.5 450.5,119.5C 455.833,119.5 461.167,119.5 466.5,119.5C 466.337,121.857 466.503,124.19 467,126.5C 468.617,125.464 468.784,124.297 467.5,123C 468.448,122.517 469.448,122.351 470.5,122.5 Z"/></g>
<g><path style="opacity:0.12" fill="#fffed4" d="M 506.5,116.5 C 512.568,115.174 518.734,115.174 525,116.5C 525.831,147.336 525.664,178.003 524.5,208.5C 524.831,177.995 524.498,147.662 523.5,117.5C 518.025,116.511 512.358,116.178 506.5,116.5 Z"/></g>
<g><path style="opacity:0.125" fill="#fcf7be" d="M 607.5,117.5 C 607.5,117.167 607.5,116.833 607.5,116.5C 608.814,118.915 609.481,121.748 609.5,125C 609.481,128.252 608.814,131.085 607.5,133.5C 593.833,133.5 580.167,133.5 566.5,133.5C 579.99,132.504 593.656,132.171 607.5,132.5C 608.833,127.5 608.833,122.5 607.5,117.5 Z"/></g>
<g><path style="opacity:1" fill="#f3c027" d="M 641.5,117.5 C 641.5,117.833 641.5,118.167 641.5,118.5C 636.833,118.5 632.167,118.5 627.5,118.5C 627.188,140.879 627.521,163.212 628.5,185.5C 627.833,185.167 627.167,184.833 626.5,184.5C 626.5,162.167 626.5,139.833 626.5,117.5C 631.5,117.5 636.5,117.5 641.5,117.5 Z"/></g>
<g><path style="opacity:0.945" fill="#f2c94d" d="M 641.5,117.5 C 641.833,117.5 642.167,117.5 642.5,117.5C 642.833,117.5 643.167,117.5 643.5,117.5C 643.333,138.836 643.5,160.169 644,181.5C 644.791,182.745 645.291,184.078 645.5,185.5C 643.52,184.152 642.353,182.152 642,179.5C 641.5,159.169 641.333,138.836 641.5,118.5C 641.5,118.167 641.5,117.833 641.5,117.5 Z"/></g>
<g><path style="opacity:1" fill="#fec20e" d="M 197.5,152.5 C 197.833,152.5 198.167,152.5 198.5,152.5C 198.5,153.167 198.833,153.5 199.5,153.5C 210.654,154.495 221.988,154.828 233.5,154.5C 233.5,158.5 233.5,162.5 233.5,166.5C 221.655,166.172 209.988,166.505 198.5,167.5C 197.175,171.445 196.508,175.778 196.5,180.5C 196.514,185.081 196.847,189.581 197.5,194C 211.496,194.5 225.496,194.667 239.5,194.5C 239.5,198.5 239.5,202.5 239.5,206.5C 220.59,206.826 201.757,206.493 183,205.5C 182.5,177.169 182.333,148.835 182.5,120.5C 200.833,120.5 219.167,120.5 237.5,120.5C 237.5,123.833 237.5,127.167 237.5,130.5C 224.163,130.333 210.829,130.5 197.5,131C 196.173,138.265 196.173,145.432 197.5,152.5 Z"/></g>
<g><path style="opacity:1" fill="#f2c22e" d="M 363.5,119.5 C 364.167,129.833 364.833,140.167 365.5,150.5C 365.5,150.833 365.5,151.167 365.5,151.5C 365.5,151.833 365.5,152.167 365.5,152.5C 364.883,152.389 364.383,152.056 364,151.5C 363.5,140.839 363.333,130.172 363.5,119.5 Z"/></g>
<g><path style="opacity:1" fill="#f8c21e" d="M 468.5,119.5 C 469.906,119.973 470.573,120.973 470.5,122.5C 469.448,122.351 468.448,122.517 467.5,123C 468.784,124.297 468.617,125.464 467,126.5C 466.503,124.19 466.337,121.857 466.5,119.5C 461.167,119.5 455.833,119.5 450.5,119.5C 450.5,148.5 450.5,177.5 450.5,206.5C 454.833,206.5 459.167,206.5 463.5,206.5C 463.333,186.164 463.5,165.831 464,145.5C 467.466,143.65 469.299,144.65 469.5,148.5C 468.395,147.4 467.062,146.733 465.5,146.5C 464.503,166.66 464.17,186.993 464.5,207.5C 459.5,207.5 454.5,207.5 449.5,207.5C 449.5,177.833 449.5,148.167 449.5,118.5C 455.923,118.209 462.256,118.542 468.5,119.5 Z"/></g>
<g><path style="opacity:1" fill="#fec20e" d="M 565.5,131.5 C 564.178,134.768 563.511,138.435 563.5,142.5C 563.667,146.167 563.833,149.833 564,153.5C 564.5,154 565,154.5 565.5,155C 577.162,155.5 588.829,155.667 600.5,155.5C 600.5,159.167 600.5,162.833 600.5,166.5C 588.495,166.333 576.495,166.5 564.5,167C 563.848,171.252 563.514,175.585 563.5,180C 563.509,184.557 564.175,188.724 565.5,192.5C 565.5,193.167 565.833,193.5 566.5,193.5C 579.99,194.496 593.656,194.829 607.5,194.5C 607.5,198.5 607.5,202.5 607.5,206.5C 588.167,206.5 568.833,206.5 549.5,206.5C 549.5,177.5 549.5,148.5 549.5,119.5C 568.167,119.5 586.833,119.5 605.5,119.5C 605.5,123.167 605.5,126.833 605.5,130.5C 591.99,130.171 578.656,130.504 565.5,131.5 Z"/></g>
<g><path style="opacity:0.859" fill="#f2cf61" d="M 642.5,117.5 C 642.167,117.5 641.833,117.5 641.5,117.5C 636.5,117.5 631.5,117.5 626.5,117.5C 626.5,139.833 626.5,162.167 626.5,184.5C 625.503,162.006 625.169,139.339 625.5,116.5C 631.358,116.178 637.025,116.511 642.5,117.5 Z"/></g>
<g><path style="opacity:0.943" fill="#f1ca4f" d="M 180.5,118.5 C 200.34,118.17 220.007,118.503 239.5,119.5C 239.817,123.702 239.483,127.702 238.5,131.5C 238.5,127.5 238.5,123.5 238.5,119.5C 219.5,119.5 200.5,119.5 181.5,119.5C 181.5,148.833 181.5,178.167 181.5,207.5C 201.167,207.5 220.833,207.5 240.5,207.5C 240.5,207.833 240.5,208.167 240.5,208.5C 220.257,208.827 200.091,208.493 180,207.5C 179.169,177.664 179.336,147.997 180.5,118.5 Z"/></g>
<g><path style="opacity:0.306" fill="#fef8c4" d="M 285.5,115.5 C 284.5,116.167 283.5,116.833 282.5,117.5C 277.735,118.186 273.735,120.186 270.5,123.5C 266.833,125.167 264.167,127.833 262.5,131.5C 261.094,131.973 260.427,132.973 260.5,134.5C 259.094,134.973 258.427,135.973 258.5,137.5C 258.5,137.833 258.5,138.167 258.5,138.5C 256.095,142.756 254.595,147.423 254,152.5C 253.5,158.825 253.334,165.158 253.5,171.5C 253.5,172.833 253.5,174.167 253.5,175.5C 249.757,158.735 252.591,143.068 262,128.5C 268.051,120.892 275.885,116.559 285.5,115.5 Z"/></g>
<g><path style="opacity:0.978" fill="#efc647" d="M 523.5,117.5 C 523.831,147.671 523.498,177.671 522.5,207.5C 522.5,177.833 522.5,148.167 522.5,118.5C 517.5,118.5 512.5,118.5 507.5,118.5C 507.83,137.341 507.497,156.007 506.5,174.5C 506.5,155.5 506.5,136.5 506.5,117.5C 512.167,117.5 517.833,117.5 523.5,117.5 Z"/></g>
<g><path style="opacity:0.839" fill="#f2ca4f" d="M 85.5,117.5 C 85.5,118.167 85.5,118.833 85.5,119.5C 85.1667,119.5 84.8333,119.5 84.5,119.5C 77.6866,118.509 70.6866,118.175 63.5,118.5C 63.5,148.167 63.5,177.833 63.5,207.5C 62.5019,177.671 62.1686,147.671 62.5,117.5C 70.1667,117.5 77.8333,117.5 85.5,117.5 Z"/></g>
<g><path style="opacity:0.055" fill="#fef7c0" d="M 313.5,117.5 C 321.59,119.259 327.256,123.926 330.5,131.5C 329.222,131.218 328.222,130.551 327.5,129.5C 325.057,124.397 321.057,121.064 315.5,119.5C 314.833,118.833 314.167,118.167 313.5,117.5 Z"/></g>
<g><path style="opacity:0.994" fill="#edc43a" d="M 423.5,117.5 C 423.831,147.671 423.498,177.671 422.5,207.5C 422.5,177.833 422.5,148.167 422.5,118.5C 417.5,118.5 412.5,118.5 407.5,118.5C 407.811,129.552 407.478,140.552 406.5,151.5C 392.85,152.499 379.183,152.833 365.5,152.5C 365.5,152.167 365.5,151.833 365.5,151.5C 379.01,151.829 392.344,151.496 405.5,150.5C 406.477,139.581 406.81,128.581 406.5,117.5C 412.167,117.5 417.833,117.5 423.5,117.5 Z"/></g>
<g><path style="opacity:1" fill="#f0cb55" d="M 86.5,120.5 C 91.5376,133.273 96.2043,146.273 100.5,159.5C 94.6759,147.036 90.0092,134.036 86.5,120.5 Z"/></g>
<g><path style="opacity:1" fill="#f3c027" d="M 84.5,119.5 C 77.8333,119.5 71.1667,119.5 64.5,119.5C 64.5,148.5 64.5,177.5 64.5,206.5C 68.8333,206.5 73.1667,206.5 77.5,206.5C 77.1697,186.993 77.503,167.659 78.5,148.5C 78.5,168.167 78.5,187.833 78.5,207.5C 73.5,207.5 68.5,207.5 63.5,207.5C 63.5,177.833 63.5,148.167 63.5,118.5C 70.6866,118.175 77.6866,118.509 84.5,119.5 Z"/></g>
<g><path style="opacity:0.345" fill="#fdf7bd" d="M 85.5,117.5 C 86.1667,117.833 86.8333,118.167 87.5,118.5C 92.9325,131.795 97.5991,145.462 101.5,159.5C 101.167,159.5 100.833,159.5 100.5,159.5C 96.2043,146.273 91.5376,133.273 86.5,120.5C 86.5,119.833 86.1667,119.5 85.5,119.5C 85.5,118.833 85.5,118.167 85.5,117.5 Z"/></g>
<g><path style="opacity:0.953" fill="#efc952" d="M 270.5,123.5 C 268.167,126.5 265.5,129.167 262.5,131.5C 264.167,127.833 266.833,125.167 270.5,123.5 Z"/></g>
<g><path style="opacity:0.645" fill="#eed575" d="M 423.5,117.5 C 424.498,147.662 424.831,177.995 424.5,208.5C 418.31,208.823 412.31,208.49 406.5,207.5C 406.833,207.5 407.167,207.5 407.5,207.5C 412.5,207.5 417.5,207.5 422.5,207.5C 423.498,177.671 423.831,147.671 423.5,117.5 Z"/></g>
<g><path style="opacity:1" fill="#f6c222" d="M 522.5,207.5 C 517.156,207.666 511.823,207.499 506.5,207C 505.944,206.617 505.611,206.117 505.5,205.5C 510.787,206.342 516.12,206.676 521.5,206.5C 521.5,177.5 521.5,148.5 521.5,119.5C 517.167,119.5 512.833,119.5 508.5,119.5C 508.667,138.17 508.5,156.836 508,175.5C 505.955,177.043 504.455,176.71 503.5,174.5C 504.652,175.625 505.652,175.625 506.5,174.5C 507.497,156.007 507.83,137.341 507.5,118.5C 512.5,118.5 517.5,118.5 522.5,118.5C 522.5,148.167 522.5,177.833 522.5,207.5 Z"/></g>
<g><path style="opacity:0.757" fill="#eece62" d="M 474.5,127.5 C 475.906,127.973 476.573,128.973 476.5,130.5C 475.094,130.027 474.427,129.027 474.5,127.5 Z"/></g>
<g><path style="opacity:0.274" fill="#fefbcb" d="M 607.5,116.5 C 607.5,116.833 607.5,117.167 607.5,117.5C 587.139,116.845 567.139,117.512 547.5,119.5C 547.5,148.833 547.5,178.167 547.5,207.5C 547.167,207.5 546.833,207.5 546.5,207.5C 545.646,179.443 545.313,151.276 545.5,123C 545.978,120.774 546.645,118.608 547.5,116.5C 567.53,115.168 587.53,115.168 607.5,116.5 Z"/></g>
<g><path style="opacity:0.874" fill="#e4c147" d="M 239.5,119.5 C 239.833,119.5 240.167,119.5 240.5,119.5C 240.818,124.032 240.485,128.366 239.5,132.5C 225.833,132.5 212.167,132.5 198.5,132.5C 211.656,131.504 224.99,131.171 238.5,131.5C 239.483,127.702 239.817,123.702 239.5,119.5 Z"/></g>
<g><path style="opacity:0.894" fill="#efc649" d="M 287.5,131.5 C 285.537,132.82 283.537,134.154 281.5,135.5C 282.392,132.708 284.392,131.375 287.5,131.5 Z"/></g>
<g><path style="opacity:0.092" fill="#fdf3b3" d="M 308.5,133.5 C 308.833,134.167 309.167,134.833 309.5,135.5C 299.856,131.076 290.523,131.576 281.5,137C 280.267,138.667 278.933,140.167 277.5,141.5C 277.5,140.833 277.5,140.167 277.5,139.5C 278.5,137.833 279.833,136.5 281.5,135.5C 283.537,134.154 285.537,132.82 287.5,131.5C 294.72,129.884 301.72,130.55 308.5,133.5 Z"/></g>
<g><path style="opacity:0.098" fill="#fffccd" d="M 471.5,120.5 C 475.281,124.624 478.281,129.291 480.5,134.5C 479.833,134.167 479.167,133.833 478.5,133.5C 478.573,131.973 477.906,130.973 476.5,130.5C 476.573,128.973 475.906,127.973 474.5,127.5C 473.89,125.566 472.89,123.899 471.5,122.5C 471.5,121.833 471.5,121.167 471.5,120.5 Z"/></g>
<g><path style="opacity:0.869" fill="#e7c244" d="M 606.5,119.5 C 607.485,123.634 607.818,127.968 607.5,132.5C 593.656,132.171 579.99,132.504 566.5,133.5C 565.51,139.645 565.177,145.978 565.5,152.5C 564.19,145.599 564.19,138.599 565.5,131.5C 579.167,131.5 592.833,131.5 606.5,131.5C 606.5,127.5 606.5,123.5 606.5,119.5 Z"/></g>
<g><path style="opacity:0.718" fill="#edd06a" d="M 155.5,117.5 C 156.498,147.662 156.831,177.995 156.5,208.5C 150.642,208.822 144.975,208.489 139.5,207.5C 144.5,207.5 149.5,207.5 154.5,207.5C 155.498,177.671 155.831,147.671 155.5,117.5 Z"/></g>
<g><path style="opacity:0.71" fill="#efd36a" d="M 476.5,130.5 C 477.906,130.973 478.573,131.973 478.5,133.5C 477.094,133.027 476.427,132.027 476.5,130.5 Z"/></g>
<g><path style="opacity:1" fill="#f1c746" d="M 682.5,116.5 C 688.259,116.214 693.925,116.548 699.5,117.5C 699.667,138.503 699.5,159.503 699,180.5C 698.968,186.036 697.135,190.702 693.5,194.5C 694.374,191.103 695.541,187.77 697,184.5C 697.5,162.503 697.667,140.503 697.5,118.5C 692.833,118.5 688.167,118.5 683.5,118.5C 683.833,139.844 683.5,161.177 682.5,182.5C 681.129,186.043 679.129,189.21 676.5,192C 668.264,194.917 660.264,195.084 652.5,192.5C 655.282,193.061 658.116,193.394 661,193.5C 669.67,194.334 676.004,191.001 680,183.5C 681.145,161.157 681.979,138.824 682.5,116.5 Z"/></g>
<g><path style="opacity:0.071" fill="#fffdd6" d="M 240.5,118.5 C 240.833,118.5 241.167,118.5 241.5,118.5C 242.648,122.981 242.815,127.648 242,132.5C 241.5,133 241,133.5 240.5,134C 226.837,134.5 213.171,134.667 199.5,134.5C 199.5,140.167 199.5,145.833 199.5,151.5C 211.345,151.172 223.012,151.505 234.5,152.5C 222.5,152.5 210.5,152.5 198.5,152.5C 198.5,146.167 198.5,139.833 198.5,133.5C 212.344,133.829 226.01,133.496 239.5,132.5C 240.485,128.366 240.818,124.032 240.5,119.5C 240.5,119.167 240.5,118.833 240.5,118.5 Z"/></g>
<g><path style="opacity:0.824" fill="#f0d063" d="M 308.5,133.5 C 310.027,133.427 311.027,134.094 311.5,135.5C 310.833,135.5 310.167,135.5 309.5,135.5C 309.167,134.833 308.833,134.167 308.5,133.5 Z"/></g>
<g><path style="opacity:0.055" fill="#ffface" d="M 366.5,119.5 C 366.167,119.5 365.833,119.5 365.5,119.5C 365.586,118.504 365.252,117.671 364.5,117C 358.916,116.194 353.416,116.361 348,117.5C 347.5,147.498 347.333,177.498 347.5,207.5C 353.31,208.49 359.31,208.823 365.5,208.5C 359.099,209.826 352.599,209.826 346,208.5C 345.333,178.167 345.333,147.833 346,117.5C 346.5,117 347,116.5 347.5,116C 353.5,115.333 359.5,115.333 365.5,116C 366.167,117 366.833,118 367.5,119C 367.272,119.399 366.938,119.565 366.5,119.5 Z"/></g>
<g><path style="opacity:0.846" fill="#efca57" d="M 365.5,119.5 C 365.5,129.833 365.5,140.167 365.5,150.5C 364.833,140.167 364.167,129.833 363.5,119.5C 358.695,118.513 353.695,118.179 348.5,118.5C 348.5,148.167 348.5,177.833 348.5,207.5C 348.167,207.5 347.833,207.5 347.5,207.5C 347.333,177.498 347.5,147.498 348,117.5C 353.416,116.361 358.916,116.194 364.5,117C 365.252,117.671 365.586,118.504 365.5,119.5 Z"/></g>
<g><path style="opacity:1" fill="#f5c125" d="M 363.5,119.5 C 358.833,119.5 354.167,119.5 349.5,119.5C 349.5,148.5 349.5,177.5 349.5,206.5C 354.167,206.5 358.833,206.5 363.5,206.5C 362.852,192.791 363.519,179.458 365.5,166.5C 365.5,166.833 365.5,167.167 365.5,167.5C 364.504,180.656 364.171,193.99 364.5,207.5C 359.167,207.5 353.833,207.5 348.5,207.5C 348.5,177.833 348.5,148.167 348.5,118.5C 353.695,118.179 358.695,118.513 363.5,119.5 Z"/></g>
<g><path style="opacity:0.074" fill="#fffedc" d="M 566.5,133.5 C 580.167,133.5 593.833,133.5 607.5,133.5C 594.344,134.496 581.01,134.829 567.5,134.5C 567.5,140.167 567.5,145.833 567.5,151.5C 579.345,151.172 591.012,151.505 602.5,152.5C 590.5,152.5 578.5,152.5 566.5,152.5C 566.5,146.167 566.5,139.833 566.5,133.5 Z"/></g>
<g><path style="opacity:1" fill="#f9c21c" d="M 238.5,131.5 C 224.99,131.171 211.656,131.504 198.5,132.5C 197.509,138.979 197.176,145.646 197.5,152.5C 196.173,145.432 196.173,138.265 197.5,131C 210.829,130.5 224.163,130.333 237.5,130.5C 237.5,127.167 237.5,123.833 237.5,120.5C 219.167,120.5 200.833,120.5 182.5,120.5C 182.333,148.835 182.5,177.169 183,205.5C 201.757,206.493 220.59,206.826 239.5,206.5C 239.5,202.5 239.5,198.5 239.5,194.5C 240.485,198.634 240.818,202.968 240.5,207.5C 220.833,207.5 201.167,207.5 181.5,207.5C 181.5,178.167 181.5,148.833 181.5,119.5C 200.5,119.5 219.5,119.5 238.5,119.5C 238.5,123.5 238.5,127.5 238.5,131.5 Z"/></g>
<g><path style="opacity:1" fill="#f3c53d" d="M 327.5,129.5 C 328.222,130.551 329.222,131.218 330.5,131.5C 330.975,134.082 330.308,136.082 328.5,137.5C 328.167,134.833 327.833,132.167 327.5,129.5 Z"/></g>
<g><path style="opacity:1" fill="#f4c125" d="M 606.5,119.5 C 606.5,123.5 606.5,127.5 606.5,131.5C 592.833,131.5 579.167,131.5 565.5,131.5C 578.656,130.504 591.99,130.171 605.5,130.5C 605.5,126.833 605.5,123.167 605.5,119.5C 586.833,119.5 568.167,119.5 549.5,119.5C 549.5,148.5 549.5,177.5 549.5,206.5C 568.833,206.5 588.167,206.5 607.5,206.5C 607.5,206.833 607.5,207.167 607.5,207.5C 587.833,207.5 568.167,207.5 548.5,207.5C 548.5,178.167 548.5,148.833 548.5,119.5C 567.833,118.167 587.167,118.167 606.5,119.5 Z"/></g>
<g><path style="opacity:0.646" fill="#f4e185" d="M 198.5,132.5 C 212.167,132.5 225.833,132.5 239.5,132.5C 226.01,133.496 212.344,133.829 198.5,133.5C 198.5,139.833 198.5,146.167 198.5,152.5C 198.167,152.5 197.833,152.5 197.5,152.5C 197.176,145.646 197.509,138.979 198.5,132.5 Z"/></g>
<g><path style="opacity:0.667" fill="#f2d674" d="M 478.5,133.5 C 479.167,133.833 479.833,134.167 480.5,134.5C 480.5,135.167 480.5,135.833 480.5,136.5C 479.094,136.027 478.427,135.027 478.5,133.5 Z"/></g>
<g><path style="opacity:1" fill="#f0c94e" d="M 128.5,133.5 C 127.03,140.267 124.697,146.601 121.5,152.5C 121.523,150.073 122.023,147.74 123,145.5C 124.362,141.233 126.195,137.233 128.5,133.5 Z"/></g>
<g><path style="opacity:0.729" fill="#f2d46d" d="M 260.5,134.5 C 260.573,136.027 259.906,137.027 258.5,137.5C 258.427,135.973 259.094,134.973 260.5,134.5 Z"/></g>
<g><path style="opacity:0.106" fill="#fffed3" d="M 480.5,134.5 C 481.906,134.973 482.573,135.973 482.5,137.5C 481.833,137.167 481.167,136.833 480.5,136.5C 480.5,135.833 480.5,135.167 480.5,134.5 Z"/></g>
<g><path style="opacity:0.09" fill="#fefdd2" d="M 482.5,137.5 C 484.25,138.659 485.25,140.326 485.5,142.5C 483.75,141.341 482.75,139.674 482.5,137.5 Z"/></g>
<g><path style="opacity:0.992" fill="#f3ce5b" d="M 480.5,136.5 C 481.167,136.833 481.833,137.167 482.5,137.5C 482.75,139.674 483.75,141.341 485.5,142.5C 485.5,143.167 485.5,143.833 485.5,144.5C 482.203,142.867 480.536,140.2 480.5,136.5 Z"/></g>
<g><path style="opacity:0.949" fill="#f0ca4f" d="M 277.5,139.5 C 277.5,140.167 277.5,140.833 277.5,141.5C 276.542,141.953 275.708,142.619 275,143.5C 274.61,146.104 273.776,148.438 272.5,150.5C 272.233,145.822 273.9,142.155 277.5,139.5 Z"/></g>
<g><path style="opacity:0.102" fill="#fdf5c0" d="M 330.5,131.5 C 332.238,133.119 332.738,135.119 332,137.5C 327.761,140.952 323.094,143.619 318,145.5C 317.167,145.167 316.333,144.833 315.5,144.5C 313.738,141.299 311.738,138.299 309.5,135.5C 310.167,135.5 310.833,135.5 311.5,135.5C 312.5,137.167 313.833,138.5 315.5,139.5C 315.291,141.714 316.124,143.381 318,144.5C 319.301,144.361 320.134,143.695 320.5,142.5C 323.167,140.833 325.833,139.167 328.5,137.5C 330.308,136.082 330.975,134.082 330.5,131.5 Z"/></g>
<g><path style="opacity:0.882" fill="#edca5a" d="M 315.5,139.5 C 316.374,141.69 318.041,142.69 320.5,142.5C 320.134,143.695 319.301,144.361 318,144.5C 316.124,143.381 315.291,141.714 315.5,139.5 Z"/></g>
<g><path style="opacity:1" fill="#f1c541" d="M 258.5,138.5 C 255.785,150.016 254.951,161.682 256,173.5C 257.167,178.177 258.333,182.844 259.5,187.5C 258.11,186.101 257.11,184.434 256.5,182.5C 256.258,178.521 255.258,174.854 253.5,171.5C 253.334,165.158 253.5,158.825 254,152.5C 254.595,147.423 256.095,142.756 258.5,138.5 Z"/></g>
<g><path style="opacity:0.31" fill="#fefab9" d="M 365.5,119.5 C 365.833,119.5 366.167,119.5 366.5,119.5C 366.612,129.509 366.945,139.509 367.5,149.5C 379.989,150.495 392.656,150.829 405.5,150.5C 392.344,151.496 379.01,151.829 365.5,151.5C 365.5,151.167 365.5,150.833 365.5,150.5C 365.5,140.167 365.5,129.833 365.5,119.5 Z"/></g>
<g><path style="opacity:0.063" fill="#fefcce" d="M 485.5,142.5 C 488.952,146.299 491.618,150.632 493.5,155.5C 492.833,155.167 492.167,154.833 491.5,154.5C 490.66,152.147 489.326,150.147 487.5,148.5C 487.34,146.847 486.674,145.514 485.5,144.5C 485.5,143.833 485.5,143.167 485.5,142.5 Z"/></g>
<g><path style="opacity:1" fill="#f2c847" d="M 487.5,148.5 C 489.326,150.147 490.66,152.147 491.5,154.5C 488.196,153.856 486.862,151.856 487.5,148.5 Z"/></g>
<g><path style="opacity:0.516" fill="#fae58d" d="M 139.5,207.5 C 138.503,189.674 138.17,171.674 138.5,153.5C 138.5,152.167 137.833,151.5 136.5,151.5C 136.415,150.005 137.081,149.005 138.5,148.5C 139.5,168.155 139.833,187.822 139.5,207.5 Z"/></g>
<g><path style="opacity:0.317" fill="#fbf2ac" d="M 566.5,133.5 C 566.5,139.833 566.5,146.167 566.5,152.5C 578.5,152.5 590.5,152.5 602.5,152.5C 602.5,152.833 602.5,153.167 602.5,153.5C 590.5,153.5 578.5,153.5 566.5,153.5C 565.833,153.5 565.5,153.167 565.5,152.5C 565.177,145.978 565.51,139.645 566.5,133.5 Z"/></g>
<g><path style="opacity:0.812" fill="#edcd61" d="M 199.5,153.5 C 211.5,153.5 223.5,153.5 235.5,153.5C 235.819,158.363 235.486,163.03 234.5,167.5C 234.818,162.968 234.485,158.634 233.5,154.5C 221.988,154.828 210.654,154.495 199.5,153.5 Z"/></g>
<g><path style="opacity:0.813" fill="#e9cb5e" d="M 566.5,153.5 C 578.5,153.5 590.5,153.5 602.5,153.5C 602.5,158.5 602.5,163.5 602.5,168.5C 590.5,168.5 578.5,168.5 566.5,168.5C 566.167,168.5 565.833,168.5 565.5,168.5C 577.322,167.505 589.322,167.172 601.5,167.5C 601.5,163.167 601.5,158.833 601.5,154.5C 589.655,154.828 577.988,154.495 566.5,153.5 Z"/></g>
<g><path style="opacity:1" fill="#f3c22d" d="M 565.5,131.5 C 564.19,138.599 564.19,145.599 565.5,152.5C 565.5,153.167 565.833,153.5 566.5,153.5C 577.988,154.495 589.655,154.828 601.5,154.5C 601.5,158.833 601.5,163.167 601.5,167.5C 589.322,167.172 577.322,167.505 565.5,168.5C 565.5,176.5 565.5,184.5 565.5,192.5C 564.175,188.724 563.509,184.557 563.5,180C 563.514,175.585 563.848,171.252 564.5,167C 576.495,166.5 588.495,166.333 600.5,166.5C 600.5,162.833 600.5,159.167 600.5,155.5C 588.829,155.667 577.162,155.5 565.5,155C 565,154.5 564.5,154 564,153.5C 563.833,149.833 563.667,146.167 563.5,142.5C 563.511,138.435 564.178,134.768 565.5,131.5 Z"/></g>
<g><path style="opacity:0.039" fill="#fef7bf" d="M 81.5,152.5 C 83.6948,157.085 85.6948,161.751 87.5,166.5C 87.8333,167.833 88.1667,169.167 88.5,170.5C 89.395,175.264 91.0617,179.597 93.5,183.5C 94.4634,188.05 95.7968,192.383 97.5,196.5C 98.5,199.167 99.5,201.833 100.5,204.5C 100.5,205.167 100.5,205.833 100.5,206.5C 100.167,206.5 99.8333,206.5 99.5,206.5C 92.7078,189.124 86.7078,171.457 81.5,153.5C 81.5,153.167 81.5,152.833 81.5,152.5 Z"/></g>
<g><path style="opacity:1" fill="#f0c541" d="M 81.5,149.5 C 85.1662,154.454 87.1662,160.12 87.5,166.5C 85.6948,161.751 83.6948,157.085 81.5,152.5C 81.5,151.833 81.5,151.167 81.5,150.5C 81.5,150.167 81.5,149.833 81.5,149.5 Z"/></g>
<g><path style="opacity:1" fill="#f0ca4f" d="M 472.5,154.5 C 475.377,155.904 477.044,158.237 477.5,161.5C 475.591,159.351 473.924,157.018 472.5,154.5 Z"/></g>
<g><path style="opacity:0.871" fill="#f0cf5e" d="M 121.5,152.5 C 121.741,154.898 121.074,156.898 119.5,158.5C 119.259,156.102 119.926,154.102 121.5,152.5 Z"/></g>
<g><path style="opacity:0.114" fill="#fefccb" d="M 493.5,155.5 C 495.326,157.147 496.66,159.147 497.5,161.5C 495.178,160.198 493.845,158.198 493.5,155.5 Z"/></g>
<g><path style="opacity:1" fill="#f2cc53" d="M 491.5,154.5 C 492.167,154.833 492.833,155.167 493.5,155.5C 493.845,158.198 495.178,160.198 497.5,161.5C 497.5,162.167 497.5,162.833 497.5,163.5C 493.744,161.652 491.744,158.652 491.5,154.5 Z"/></g>
<g><path style="opacity:0.2" fill="#fdf7bc" d="M 136.5,151.5 C 137.833,151.5 138.5,152.167 138.5,153.5C 138.167,153.5 137.833,153.5 137.5,153.5C 135.497,158.511 133.497,163.511 131.5,168.5C 132.01,165.461 132.677,162.461 133.5,159.5C 133.833,157.5 134.167,155.5 134.5,153.5C 135.167,152.833 135.833,152.167 136.5,151.5 Z"/></g>
<g><path style="opacity:0.388" fill="#fdf6bd" d="M 101.5,159.5 C 103.435,163.213 104.768,167.213 105.5,171.5C 103.975,168.921 102.641,166.254 101.5,163.5C 101.5,162.167 101.5,160.833 101.5,159.5 Z"/></g>
<g><path style="opacity:0.127" fill="#fefed2" d="M 137.5,153.5 C 137.833,153.5 138.167,153.5 138.5,153.5C 138.17,171.674 138.503,189.674 139.5,207.5C 144.975,208.489 150.642,208.822 156.5,208.5C 150.432,209.826 144.266,209.826 138,208.5C 137.5,190.17 137.333,171.836 137.5,153.5 Z"/></g>
<g><path style="opacity:0.863" fill="#f0cc59" d="M 119.5,158.5 C 119.741,160.898 119.074,162.898 117.5,164.5C 117.259,162.102 117.926,160.102 119.5,158.5 Z"/></g>
<g><path style="opacity:1" fill="#eec440" d="M 478.5,163.5 C 480.796,164.733 482.13,166.733 482.5,169.5C 480.684,167.882 479.351,165.882 478.5,163.5 Z"/></g>
<g><path style="opacity:0.09" fill="#fffed8" d="M 497.5,161.5 C 498.906,161.973 499.573,162.973 499.5,164.5C 498.833,164.167 498.167,163.833 497.5,163.5C 497.5,162.833 497.5,162.167 497.5,161.5 Z"/></g>
<g><path style="opacity:1" fill="#f7c224" d="M 153.5,119.5 C 154.498,148.662 154.831,177.995 154.5,207.5C 149.5,207.5 144.5,207.5 139.5,207.5C 139.833,187.822 139.5,168.155 138.5,148.5C 137.081,149.005 136.415,150.005 136.5,151.5C 135.833,152.167 135.167,152.833 134.5,153.5C 133.309,147.528 135.476,145.195 141,146.5C 141.167,166.508 141.667,186.508 142.5,206.5C 146.094,205.574 149.76,205.241 153.5,205.5C 153.5,176.833 153.5,148.167 153.5,119.5 Z"/></g>
<g><path style="opacity:0.737" fill="#e9ca5b" d="M 465.5,146.5 C 465.5,167.167 465.5,187.833 465.5,208.5C 459.642,208.822 453.975,208.489 448.5,207.5C 448.833,207.5 449.167,207.5 449.5,207.5C 454.5,207.5 459.5,207.5 464.5,207.5C 464.17,186.993 464.503,166.66 465.5,146.5 Z"/></g>
<g><path style="opacity:0.286" fill="#fdf8c1" d="M 131.5,118.5 C 131.833,118.5 132.167,118.5 132.5,118.5C 132.5,118.833 132.5,119.167 132.5,119.5C 130.855,124.079 129.522,128.746 128.5,133.5C 126.195,137.233 124.362,141.233 123,145.5C 122.023,147.74 121.523,150.073 121.5,152.5C 119.926,154.102 119.259,156.102 119.5,158.5C 117.926,160.102 117.259,162.102 117.5,164.5C 114.871,169.872 112.704,175.539 111,181.5C 110.329,182.252 109.496,182.586 108.5,182.5C 107.677,180.013 106.677,177.679 105.5,175.5C 105.5,174.167 105.5,172.833 105.5,171.5C 107.018,173.681 108.018,176.181 108.5,179C 109.167,181 109.833,181 110.5,179C 117.038,158.548 124.038,138.381 131.5,118.5 Z"/></g>
<g><path style="opacity:0.675" fill="#f3d772" d="M 133.5,159.5 C 132.677,162.461 132.01,165.461 131.5,168.5C 131.167,168.5 130.833,168.5 130.5,168.5C 130.517,166.435 130.85,164.435 131.5,162.5C 131.427,160.973 132.094,159.973 133.5,159.5 Z"/></g>
<g><path style="opacity:0.482" fill="#f7e58c" d="M 497.5,163.5 C 498.167,163.833 498.833,164.167 499.5,164.5C 499.5,165.167 499.5,165.833 499.5,166.5C 498.094,166.027 497.427,165.027 497.5,163.5 Z"/></g>
<g><path style="opacity:1" fill="#edc132" d="M 233.5,154.5 C 234.485,158.634 234.818,162.968 234.5,167.5C 222.5,167.5 210.5,167.5 198.5,167.5C 209.988,166.505 221.655,166.172 233.5,166.5C 233.5,162.5 233.5,158.5 233.5,154.5 Z"/></g>
<g><path style="opacity:0.957" fill="#f1d05e" d="M 117.5,164.5 C 115.983,170.555 114.149,176.555 112,182.5C 110.446,184.927 109.279,184.927 108.5,182.5C 109.496,182.586 110.329,182.252 111,181.5C 112.704,175.539 114.871,169.872 117.5,164.5 Z"/></g>
<g><path style="opacity:0.976" fill="#f2c540" d="M 131.5,162.5 C 130.85,164.435 130.517,166.435 130.5,168.5C 127.934,176.116 125.267,183.783 122.5,191.5C 122.167,191.5 121.833,191.5 121.5,191.5C 121.987,187.133 122.653,182.799 123.5,178.5C 124.5,178.5 125.5,178.5 126.5,178.5C 127.505,173.478 128.672,168.478 130,163.5C 130.383,162.944 130.883,162.611 131.5,162.5 Z"/></g>
<g><path style="opacity:0.153" fill="#fdf8bb" d="M 198.5,152.5 C 210.5,152.5 222.5,152.5 234.5,152.5C 235.812,154.743 236.478,157.41 236.5,160.5C 236.476,163.421 236.143,166.254 235.5,169C 223.591,169.178 211.758,169.678 200,170.5C 199.5,177.492 199.334,184.492 199.5,191.5C 213.167,192.167 226.833,192.833 240.5,193.5C 226.5,193.5 212.5,193.5 198.5,193.5C 198.5,185.167 198.5,176.833 198.5,168.5C 210.678,168.828 222.678,168.495 234.5,167.5C 235.486,163.03 235.819,158.363 235.5,153.5C 223.5,153.5 211.5,153.5 199.5,153.5C 198.833,153.5 198.5,153.167 198.5,152.5 Z"/></g>
<g><path style="opacity:0.152" fill="#fffbc6" d="M 602.5,152.5 C 603.117,152.611 603.617,152.944 604,153.5C 604.667,158.5 604.667,163.5 604,168.5C 603,169.167 602,169.833 601,170.5C 590.248,169.513 579.415,169.18 568.5,169.5C 567.833,169.5 567.167,169.5 566.5,169.5C 566.5,169.167 566.5,168.833 566.5,168.5C 578.5,168.5 590.5,168.5 602.5,168.5C 602.5,163.5 602.5,158.5 602.5,153.5C 602.5,153.167 602.5,152.833 602.5,152.5 Z"/></g>
<g><path style="opacity:0.189" fill="#fff6b3" d="M 365.5,166.5 C 379.01,166.171 392.344,166.504 405.5,167.5C 392.124,166.852 379.124,167.519 366.5,169.5C 367.043,170.742 367.377,172.075 367.5,173.5C 366.895,185.322 366.228,196.989 365.5,208.5C 365.5,194.833 365.5,181.167 365.5,167.5C 365.5,167.167 365.5,166.833 365.5,166.5 Z"/></g>
<g><path style="opacity:0.137" fill="#fefed5" d="M 405.5,167.5 C 405.171,181.01 405.504,194.344 406.5,207.5C 412.31,208.49 418.31,208.823 424.5,208.5C 418.099,209.826 411.599,209.826 405,208.5C 404.5,195.171 404.333,181.837 404.5,168.5C 391.754,168.187 379.087,168.52 366.5,169.5C 379.124,167.519 392.124,166.852 405.5,167.5 Z"/></g>
<g><path style="opacity:0.875" fill="#f0c84b" d="M 101.5,163.5 C 102.641,166.254 103.975,168.921 105.5,171.5C 105.5,172.833 105.5,174.167 105.5,175.5C 102.803,172.101 101.47,168.101 101.5,163.5 Z"/></g>
<g><path style="opacity:0.735" fill="#e8c95d" d="M 365.5,167.5 C 365.5,181.167 365.5,194.833 365.5,208.5C 359.31,208.823 353.31,208.49 347.5,207.5C 347.833,207.5 348.167,207.5 348.5,207.5C 353.833,207.5 359.167,207.5 364.5,207.5C 364.171,193.99 364.504,180.656 365.5,167.5 Z"/></g>
<g><path style="opacity:0.447" fill="#f4e085" d="M 78.5,148.5 C 79.791,148.263 80.791,148.596 81.5,149.5C 81.5,149.833 81.5,150.167 81.5,150.5C 80.8826,150.389 80.3826,150.056 80,149.5C 79.5,169.164 79.3334,188.831 79.5,208.5C 73.9738,208.821 68.6405,208.488 63.5,207.5C 68.5,207.5 73.5,207.5 78.5,207.5C 78.5,187.833 78.5,168.167 78.5,148.5 Z"/></g>
<g><path style="opacity:0.059" fill="#fef8c2" d="M 130.5,168.5 C 130.833,168.5 131.167,168.5 131.5,168.5C 129.299,177.213 126.299,185.546 122.5,193.5C 122.5,192.833 122.5,192.167 122.5,191.5C 125.267,183.783 127.934,176.116 130.5,168.5 Z"/></g>
<g><path style="opacity:0.939" fill="#f2ce58" d="M 405.5,167.5 C 407.481,180.458 408.148,193.791 407.5,207.5C 407.167,207.5 406.833,207.5 406.5,207.5C 405.504,194.344 405.171,181.01 405.5,167.5 Z"/></g>
<g><path style="opacity:0.061" fill="#fffed6" d="M 81.5,150.5 C 81.5,151.167 81.5,151.833 81.5,152.5C 81.5,152.833 81.5,153.167 81.5,153.5C 80.8333,171.833 80.1667,190.167 79.5,208.5C 79.3334,188.831 79.5,169.164 80,149.5C 80.3826,150.056 80.8826,150.389 81.5,150.5 Z"/></g>
<g><path style="opacity:0.271" fill="#fbeca2" d="M 253.5,171.5 C 255.258,174.854 256.258,178.521 256.5,182.5C 255.833,181.5 255.167,180.5 254.5,179.5C 253.566,178.432 253.232,177.099 253.5,175.5C 253.5,174.167 253.5,172.833 253.5,171.5 Z"/></g>
<g><path style="opacity:0.957" fill="#f0c849" d="M 88.5,170.5 C 91.5203,174.224 93.187,178.557 93.5,183.5C 91.0617,179.597 89.395,175.264 88.5,170.5 Z"/></g>
<g><path style="opacity:1" fill="#f2c53e" d="M 272.5,172.5 C 273.489,175.726 274.489,179.06 275.5,182.5C 274.542,182.047 273.708,181.381 273,180.5C 272.503,177.854 272.336,175.187 272.5,172.5 Z"/></g>
<g><path style="opacity:0.22" fill="#fef7c0" d="M 465.5,146.5 C 467.062,146.733 468.395,147.4 469.5,148.5C 470.5,150.5 471.5,152.5 472.5,154.5C 473.924,157.018 475.591,159.351 477.5,161.5C 477.328,162.492 477.662,163.158 478.5,163.5C 479.351,165.882 480.684,167.882 482.5,169.5C 486.763,177.756 491.43,185.756 496.5,193.5C 496.5,194.167 496.5,194.833 496.5,195.5C 486.442,180.401 476.608,165.068 467,149.5C 467.112,161.165 467.278,172.832 467.5,184.5C 467.101,192.676 466.435,200.676 465.5,208.5C 465.5,187.833 465.5,167.167 465.5,146.5 Z"/></g>
<g><path style="opacity:0.157" fill="#fef8c2" d="M 277.5,141.5 C 272.919,153.642 272.419,165.975 276,178.5C 282.64,191.374 292.806,195.208 306.5,190C 312.004,187.16 315.171,182.66 316,176.5C 317,175.833 318,175.167 319,174.5C 323.736,176.451 328.236,178.784 332.5,181.5C 333.977,185.315 333.31,188.648 330.5,191.5C 331.167,188.5 331.833,185.5 332.5,182.5C 331.041,182.567 329.708,182.234 328.5,181.5C 326.302,179.902 323.969,178.569 321.5,177.5C 317.672,175.639 316.005,176.973 316.5,181.5C 315.326,182.514 314.66,183.847 314.5,185.5C 312.5,186.833 310.833,188.5 309.5,190.5C 299.924,194.81 290.59,194.477 281.5,189.5C 279.471,187.142 277.471,184.808 275.5,182.5C 274.489,179.06 273.489,175.726 272.5,172.5C 272.5,165.167 272.5,157.833 272.5,150.5C 273.776,148.438 274.61,146.104 275,143.5C 275.708,142.619 276.542,141.953 277.5,141.5 Z"/></g>
<g><path style="opacity:0.859" fill="#efd170" d="M 321.5,177.5 C 318.6,177.408 316.933,178.741 316.5,181.5C 316.005,176.973 317.672,175.639 321.5,177.5 Z"/></g>
<g><path style="opacity:0.949" fill="#efc954" d="M 328.5,181.5 C 329.708,182.234 331.041,182.567 332.5,182.5C 331.833,185.5 331.167,188.5 330.5,191.5C 329.833,191.833 329.167,192.167 328.5,192.5C 329.084,189.997 329.751,187.497 330.5,185C 329.571,183.923 328.904,182.756 328.5,181.5 Z"/></g>
<g><path style="opacity:0.949" fill="#efc849" d="M 93.5,183.5 C 96.2003,187.272 97.5336,191.605 97.5,196.5C 95.7968,192.383 94.4634,188.05 93.5,183.5 Z"/></g>
<g><path style="opacity:0.141" fill="#fdf7c4" d="M 254.5,179.5 C 255.167,180.5 255.833,181.5 256.5,182.5C 257.11,184.434 258.11,186.101 259.5,187.5C 261.414,192.335 264.081,196.669 267.5,200.5C 264.236,199.073 261.736,196.739 260,193.5C 257.083,189.249 255.25,184.582 254.5,179.5 Z"/></g>
<g><path style="opacity:0.929" fill="#f1c94f" d="M 314.5,185.5 C 313.833,188.167 312.167,189.833 309.5,190.5C 310.833,188.5 312.5,186.833 314.5,185.5 Z"/></g>
<g><path style="opacity:1" fill="#f2c63c" d="M 275.5,182.5 C 277.471,184.808 279.471,187.142 281.5,189.5C 277.488,188.84 275.488,186.506 275.5,182.5 Z"/></g>
<g><path style="opacity:1" fill="#f3c740" d="M 645.5,185.5 C 646.167,185.833 646.833,186.167 647.5,186.5C 648.45,189.115 650.117,191.115 652.5,192.5C 648.07,192.141 645.737,189.807 645.5,185.5 Z"/></g>
<g><path style="opacity:0.808" fill="#efcc5c" d="M 626.5,184.5 C 627.167,184.833 627.833,185.167 628.5,185.5C 628.674,187.861 629.007,190.194 629.5,192.5C 628.203,190.629 627.203,188.629 626.5,186.5C 626.5,185.833 626.5,185.167 626.5,184.5 Z"/></g>
<g><path style="opacity:0.052" fill="#fefedf" d="M 199.5,191.5 C 213.504,191.333 227.504,191.5 241.5,192C 242.056,192.383 242.389,192.883 242.5,193.5C 242.167,193.5 241.833,193.5 241.5,193.5C 241.167,193.5 240.833,193.5 240.5,193.5C 226.833,192.833 213.167,192.167 199.5,191.5 Z"/></g>
<g><path style="opacity:0.085" fill="#fefede" d="M 566.5,169.5 C 567.167,169.5 567.833,169.5 568.5,169.5C 567.536,176.746 567.203,184.08 567.5,191.5C 581.504,191.333 595.504,191.5 609.5,192C 610.825,197.599 610.825,203.099 609.5,208.5C 609.821,203.305 609.487,198.305 608.5,193.5C 594.677,192.504 580.677,192.171 566.5,192.5C 566.5,184.833 566.5,177.167 566.5,169.5 Z"/></g>
<g><path style="opacity:0.437" fill="#fceca1" d="M 565.5,168.5 C 565.833,168.5 566.167,168.5 566.5,168.5C 566.5,168.833 566.5,169.167 566.5,169.5C 566.5,177.167 566.5,184.833 566.5,192.5C 580.677,192.171 594.677,192.504 608.5,193.5C 594.5,193.5 580.5,193.5 566.5,193.5C 565.833,193.5 565.5,193.167 565.5,192.5C 565.5,184.5 565.5,176.5 565.5,168.5 Z"/></g>
<g><path style="opacity:0.944" fill="#eec94f" d="M 198.5,167.5 C 210.5,167.5 222.5,167.5 234.5,167.5C 222.678,168.495 210.678,168.828 198.5,168.5C 198.5,176.833 198.5,185.167 198.5,193.5C 212.5,193.5 226.5,193.5 240.5,193.5C 240.833,193.5 241.167,193.5 241.5,193.5C 241.819,198.363 241.486,203.03 240.5,207.5C 240.818,202.968 240.485,198.634 239.5,194.5C 225.496,194.667 211.496,194.5 197.5,194C 196.847,189.581 196.514,185.081 196.5,180.5C 196.508,175.778 197.175,171.445 198.5,167.5 Z"/></g>
<g><path style="opacity:1" fill="#f1c53d" d="M 281.5,189.5 C 290.59,194.477 299.924,194.81 309.5,190.5C 309.063,192.074 308.063,193.241 306.5,194C 298.293,195.149 290.293,194.482 282.5,192C 281.748,191.329 281.414,190.496 281.5,189.5 Z"/></g>
<g><path style="opacity:0.129" fill="#fbefab" d="M 121.5,191.5 C 121.833,191.5 122.167,191.5 122.5,191.5C 122.5,192.167 122.5,192.833 122.5,193.5C 121.565,197.969 120.232,202.303 118.5,206.5C 117.833,206.833 117.167,207.167 116.5,207.5C 117.038,205.883 117.371,204.216 117.5,202.5C 119.601,199.203 120.935,195.537 121.5,191.5 Z"/></g>
<g><path style="opacity:0.792" fill="#efcd5c" d="M 327.5,194.5 C 326.89,195.391 326.557,196.391 326.5,197.5C 326.167,197.5 325.833,197.5 325.5,197.5C 325.285,195.821 325.952,194.821 327.5,194.5 Z"/></g>
<g><path style="opacity:0.114" fill="#fdf7c0" d="M 330.5,191.5 C 330.155,194.198 328.822,196.198 326.5,197.5C 326.557,196.391 326.89,195.391 327.5,194.5C 327.833,193.833 328.167,193.167 328.5,192.5C 329.167,192.167 329.833,191.833 330.5,191.5 Z"/></g>
<g><path style="opacity:1" fill="#f3c63e" d="M 496.5,193.5 C 500.723,195.463 503.056,198.796 503.5,203.5C 501.149,200.761 498.816,198.095 496.5,195.5C 496.5,194.833 496.5,194.167 496.5,193.5 Z"/></g>
<g><path style="opacity:0.298" fill="#fef7c0" d="M 626.5,186.5 C 627.203,188.629 628.203,190.629 629.5,192.5C 629.833,193.167 630.167,193.833 630.5,194.5C 632.117,197.784 634.45,200.451 637.5,202.5C 637.833,203.167 638.167,203.833 638.5,204.5C 632.284,201.283 628.284,196.283 626.5,189.5C 626.5,188.5 626.5,187.5 626.5,186.5 Z"/></g>
<g><path style="opacity:0.027" fill="#fffdd9" d="M 695.5,195.5 C 695.573,197.027 694.906,198.027 693.5,198.5C 693.427,196.973 694.094,195.973 695.5,195.5 Z"/></g>
<g><path style="opacity:0.188" fill="#fdf3b5" d="M 325.5,197.5 C 325.833,197.5 326.167,197.5 326.5,197.5C 326.141,199.371 325.141,200.871 323.5,202C 321.183,204.157 318.516,205.657 315.5,206.5C 314.833,206.5 314.167,206.5 313.5,206.5C 317.819,203.998 321.819,200.998 325.5,197.5 Z"/></g>
<g><path style="opacity:0.292" fill="#fef4bc" d="M 241.5,193.5 C 241.833,193.5 242.167,193.5 242.5,193.5C 242.525,198.411 242.525,203.411 242.5,208.5C 241.833,208.5 241.167,208.5 240.5,208.5C 240.5,208.167 240.5,207.833 240.5,207.5C 241.486,203.03 241.819,198.363 241.5,193.5 Z"/></g>
<g><path style="opacity:0.204" fill="#fef9c8" d="M 496.5,195.5 C 498.816,198.095 501.149,200.761 503.5,203.5C 503.5,203.833 503.5,204.167 503.5,204.5C 504.028,205.721 504.695,206.887 505.5,208C 511.825,208.5 518.158,208.666 524.5,208.5C 518.013,209.654 511.346,209.821 504.5,209C 501.181,204.857 498.514,200.357 496.5,195.5 Z"/></g>
<g><path style="opacity:0.667" fill="#eed66f" d="M 637.5,202.5 C 639.027,202.427 640.027,203.094 640.5,204.5C 639.833,204.5 639.167,204.5 638.5,204.5C 638.167,203.833 637.833,203.167 637.5,202.5 Z"/></g>
<g><path style="opacity:0.078" fill="#fef8c6" d="M 638.5,204.5 C 639.167,204.5 639.833,204.5 640.5,204.5C 643.132,205.472 645.465,206.805 647.5,208.5C 643.898,208.308 640.898,206.974 638.5,204.5 Z"/></g>
<g><path style="opacity:1" fill="#f4c22b" d="M 97.5,196.5 C 100.222,198.957 102.222,201.957 103.5,205.5C 107.445,206.491 111.445,206.824 115.5,206.5C 115.229,204.62 115.896,203.287 117.5,202.5C 117.371,204.216 117.038,205.883 116.5,207.5C 111.821,207.666 107.155,207.499 102.5,207C 101.934,206.005 101.267,205.172 100.5,204.5C 99.5,201.833 98.5,199.167 97.5,196.5 Z"/></g>
<g><path style="opacity:0.404" fill="#f9eca8" d="M 267.5,200.5 C 268.167,200.5 268.833,200.5 269.5,200.5C 270.574,201.885 271.907,203.051 273.5,204C 283.016,208.097 293.016,209.597 303.5,208.5C 298.695,209.487 293.695,209.821 288.5,209.5C 283.562,209.466 278.896,208.299 274.5,206C 271.734,204.629 269.401,202.796 267.5,200.5 Z"/></g>
<g><path style="opacity:0.629" fill="#ecce62" d="M 100.5,204.5 C 101.267,205.172 101.934,206.005 102.5,207C 107.155,207.499 111.821,207.666 116.5,207.5C 111.684,208.65 106.684,208.816 101.5,208C 100.944,207.617 100.611,207.117 100.5,206.5C 100.5,205.833 100.5,205.167 100.5,204.5 Z"/></g>
<g><path style="opacity:0.882" fill="#f0c643" d="M 269.5,200.5 C 275.462,202.751 281.462,204.917 287.5,207C 295.528,207.698 303.528,207.532 311.5,206.5C 309.162,208.04 306.495,208.706 303.5,208.5C 293.016,209.597 283.016,208.097 273.5,204C 271.907,203.051 270.574,201.885 269.5,200.5 Z"/></g>
<g><path style="opacity:0.659" fill="#edd16c" d="M 523.5,117.5 C 524.498,147.662 524.831,177.995 524.5,208.5C 518.158,208.666 511.825,208.5 505.5,208C 504.695,206.887 504.028,205.721 503.5,204.5C 504.492,204.328 505.158,204.662 505.5,205.5C 505.611,206.117 505.944,206.617 506.5,207C 511.823,207.499 517.156,207.666 522.5,207.5C 523.498,177.671 523.831,147.671 523.5,117.5 Z"/></g>
<g><path style="opacity:0.679" fill="#eccd60" d="M 547.5,119.5 C 547.833,119.5 548.167,119.5 548.5,119.5C 548.5,148.833 548.5,178.167 548.5,207.5C 568.167,207.5 587.833,207.5 607.5,207.5C 608.486,203.03 608.819,198.363 608.5,193.5C 609.487,198.305 609.821,203.305 609.5,208.5C 588.66,208.831 567.993,208.497 547.5,207.5C 547.5,178.167 547.5,148.833 547.5,119.5 Z"/></g>
<g><path style="opacity:0.959" fill="#edc035" d="M 566.5,193.5 C 580.5,193.5 594.5,193.5 608.5,193.5C 608.819,198.363 608.486,203.03 607.5,207.5C 607.5,207.167 607.5,206.833 607.5,206.5C 607.5,202.5 607.5,198.5 607.5,194.5C 593.656,194.829 579.99,194.496 566.5,193.5 Z"/></g>
<g><path style="opacity:0.936" fill="#f1c53e" d="M 630.5,194.5 C 636.438,199.56 643.105,203.726 650.5,207C 660.988,208.054 671.322,207.388 681.5,205C 683.06,202.341 685.393,201.174 688.5,201.5C 686.5,203.167 684.5,204.833 682.5,206.5C 673.944,208.198 665.278,208.865 656.5,208.5C 653.5,208.5 650.5,208.5 647.5,208.5C 645.465,206.805 643.132,205.472 640.5,204.5C 640.027,203.094 639.027,202.427 637.5,202.5C 634.45,200.451 632.117,197.784 630.5,194.5 Z"/></g>
<g><path style="opacity:0.141" fill="#f8eca7" d="M 682.5,206.5 C 679.314,208.874 675.647,209.874 671.5,209.5C 666.305,209.821 661.305,209.487 656.5,208.5C 665.278,208.865 673.944,208.198 682.5,206.5 Z"/></g>
<g><path style="opacity:0.106" fill="#fefedb" d="M 99.5,206.5 C 99.8333,206.5 100.167,206.5 100.5,206.5C 100.611,207.117 100.944,207.617 101.5,208C 106.684,208.816 111.684,208.65 116.5,207.5C 117.167,207.167 117.833,206.833 118.5,206.5C 118.586,207.496 118.252,208.329 117.5,209C 111.833,209.667 106.167,209.667 100.5,209C 99.7476,208.329 99.4142,207.496 99.5,206.5 Z"/></g>
<g><path style="opacity:0.112" fill="#fffdcf" d="M 181.5,116.5 C 201.007,116.17 220.341,116.503 239.5,117.5C 219.66,117.17 199.993,117.503 180.5,118.5C 179.336,147.997 179.169,177.664 180,207.5C 200.091,208.493 220.257,208.827 240.5,208.5C 241.167,208.5 241.833,208.5 242.5,208.5C 221.431,209.831 200.264,209.831 179,208.5C 178.333,178.167 178.333,147.833 179,117.5C 179.671,116.748 180.504,116.414 181.5,116.5 Z"/></g>
<g><path style="opacity:0.115" fill="#fffed8" d="M 546.5,207.5 C 546.833,207.5 547.167,207.5 547.5,207.5C 567.993,208.497 588.66,208.831 609.5,208.5C 599.172,209.167 588.672,209.5 578,209.5C 567.145,209.499 556.645,208.832 546.5,207.5 Z"/></g>
<g><path style="opacity:0.101" fill="#fffdcd" d="M 311.5,206.5 C 312.167,206.5 312.833,206.5 313.5,206.5C 314.167,206.5 314.833,206.5 315.5,206.5C 306.792,210.356 297.792,211.356 288.5,209.5C 293.695,209.821 298.695,209.487 303.5,208.5C 306.495,208.706 309.162,208.04 311.5,206.5 Z"/></g>
<g><path style="opacity:0.133" fill="#fdfac8" d="M 647.5,208.5 C 650.5,208.5 653.5,208.5 656.5,208.5C 661.305,209.487 666.305,209.821 671.5,209.5C 668.518,210.165 665.352,210.498 662,210.5C 656.91,210.656 652.077,209.99 647.5,208.5 Z"/></g>
</svg>
